<?xml version="1.0" encoding="utf-8"?>
<!-- Generator: Adobe Illustrator 16.0.0, SVG Export Plug-In . SVG Version: 6.00 Build 0)  -->
<!DOCTYPE svg PUBLIC "-//W3C//DTD SVG 1.1//EN" "http://www.w3.org/Graphics/SVG/1.1/DTD/svg11.dtd">
<svg version="1.1" id="Layer_1" xmlns="http://www.w3.org/2000/svg" xmlns:xlink="http://www.w3.org/1999/xlink" x="0px" y="0px"
	 width="283.105px" height="102.986px" viewBox="0 0 283.105 102.986" enable-background="new 0 0 283.105 102.986"
	 xml:space="preserve">
<g>
	<g>
		<path fill="#FFFFFF" d="M61.466,10.54c-22.618,0-40.953,18.336-40.953,40.953c0,22.617,18.335,40.953,40.953,40.953
			c22.617,0,40.952-18.336,40.952-40.953C102.418,28.877,84.084,10.54,61.466,10.54z M38.11,23.207
			c0.519-0.382,1.746-0.154,4.822,1.98c5.38,3.737,6.051,4.844,6.379,9.592c0.197,2.855,0.628,5.018-0.079,7.86
			c-0.107,0.433-0.833,1.573-1.34,2.451c0-2.078,0.05-4.355-0.097-5.837c-0.266-2.696-2.042-5.269-2.946-6.131
			c-4.023,8.333,2.54,18.482,2.54,18.482s-5.031-3.192-6.354-5.826c-2.514-5.01-4.707-9.568-4.705-15.747
			C36.334,27.519,37.003,24.019,38.11,23.207z M90.105,71.548c-0.153,0.115-0.367,0.229-0.661,0.339
			c-1.804,0.667-6.968,1.067-12.028-1.25c3.022,0.551,6.725,1.176,10.202,0.452c-0.072-0.183-0.125-0.391-0.144-0.636
			c-0.05-0.664,0.006-1.335-0.023-2.002c-0.078-1.817,0.141-3.731-0.911-5.12c-1.58-2.091-3.577-3.813-6.271-4.622
			c-1.088-0.325-5.653-0.63-8.593,0.046c-3.363,0.773-4.966,1.401-7.499,3.608c-4.465,3.898-3.213,6.069-1.543,7.822
			c1.35,1.417,7.474,2.458,7.474,2.458c-5.943,2.782-9.559,2.349-13.159,2.217c-3.844-0.14-11.387-3.004-17.822-9.1
			c-5.518-5.229-8.638-12.104-8.638-12.104s4.689,4.135,9.774,5.81c-3.606-2.576-4.906-6.431-4.906-6.431s6.238,8.219,12.421,6.192
			c3.496-2.046,4.529-4.577,6.831-6.829c1.146-1.122,2.361-2.069,3.661-2.81h0c0,0,5.515-4.178,12.349-2.656
			c-0.249-0.306-0.501-0.62-0.751-0.95c-3.06-4.025-9.777-8.528-18.544-8.125c0,0,1.314-1.029,7.058-1.816
			c1.466-0.201,3.194-6.051,5.834-8.106c3.256-2.535,3.967-2.518,5.08-2.752c2.254-0.475,1.675,3.38,1.754,4.723
			c0.186,3.271,0.37,4.591-0.814,6.995c-0.394,0.798-0.983,1.883-2.504,3.18c1.699,0.995,3.883,3.162,5.392,4.58
			c1.269,1.188,6.147,5.18,6.348,6.942c0.282,2.476,0.272,3.1,0.677,3.778c1.457,2.439,3.811,3.835,5.948,5.489
			c0.507,0.393,1.129,0.634,1.665,0.993c1.643,1.111,3.037,1.625,4.844,2.356c1.334,0.542,1.785,1.222,1.314,2.505
			C93.19,68.713,92.124,70.542,90.105,71.548z"/>
		<path fill="#FFFFFF" d="M69.139,51.918c-0.067-0.071-0.136-0.141-0.207-0.211c-0.026-0.024-0.053-0.051-0.082-0.079
			c-0.027-0.026-0.056-0.052-0.085-0.08c-0.867-0.84-4.093-0.792-5.086-0.211c-1.364,0.801-1.377,0.502-0.62,1.745
			c0.754,1.245,2.862,1.688,4.441,1.636c0.749-0.023,1.418-0.062,2.063-0.148C69.01,54.176,68.107,53.255,69.139,51.918z"/>
	</g>
	<g>
		<path fill="#FFFFFF" d="M116.037,45.043V23.785c0-1.737-0.331-2.481-1.446-3.185h7.113c0.373,0,1.281,0.042,2.646,0.042
			c2.77,0.042,3.804,0.165,5.087,0.538c3.019,0.911,4.881,3.392,4.881,6.536c0,1.488-0.414,2.854-1.2,3.969
			c-0.95,1.408-1.943,1.985-4.135,2.525c0.495,0.372,0.662,0.537,1.365,1.487l0.62,0.746l0.373,0.496l5.831,7.775
			c0.041,0.082,0.207,0.288,0.496,0.661c0.58,0.827,0.993,1.282,1.53,1.654c0.538,0.415,0.788,0.58,2.151,1.157h-7.857l-7.321-9.965
			c-1.777-2.44-2.935-3.143-5.127-3.268v10.091c0,1.696,0.331,2.481,1.447,3.142h-7.9C115.707,47.523,116.037,46.738,116.037,45.043
			z M122.78,31.311c1.282,0,2.192-0.041,2.978-0.207c1.819-0.331,3.019-1.696,3.019-3.433c0-2.273-1.612-3.226-5.418-3.226h-0.951
			l-1.366,0.042v6.783C121.912,31.311,122.284,31.311,122.78,31.311z"/>
		<path fill="#FFFFFF" d="M156.118,46.406c-1.531,1.572-3.726,2.315-6.663,2.315c-5.169,0-8.188-2.357-8.188-6.37
			c0-4.755,4.054-7.362,11.375-7.362c0.828,0,1.408,0.042,2.731,0.166c0-1.199-0.042-1.489-0.248-1.942
			c-0.497-1.077-1.862-1.612-4.221-1.612c-1.449,0-2.814,0.165-4.054,0.496c-1.323,0.331-2.192,0.662-4.22,1.654l1.53-5.294
			c0.704-0.083,1.241-0.165,1.572-0.207c1.903-0.25,3.103-0.331,4.715-0.331c2.606,0,4.47,0.248,6.207,0.826
			c1.078,0.373,1.944,0.91,2.482,1.531c0.828,0.993,1.077,2.109,1.077,5.418v6.947c0,1.408,0.083,2.4,0.29,3.475
			c0.165,0.868,0.288,1.241,0.702,2.067h-4.923C156.2,47.731,156.158,47.359,156.118,46.406z M152.518,38.342
			c-4.096,0-6.288,1.282-6.288,3.599c0,1.985,1.572,3.267,4.014,3.267c3.352,0,5.171-1.943,5.171-5.5c0-0.374,0-0.785-0.042-1.2
			C153.966,38.385,153.386,38.342,152.518,38.342z"/>
		<path fill="#FFFFFF" d="M183.165,33.503c-2.149-1.158-4.3-1.737-6.533-1.737c-4.054,0-6.617,2.564-6.617,6.575
			c0,4.055,2.604,6.617,6.659,6.617c1.24,0,2.522-0.249,4.093-0.745c1.281-0.455,1.903-0.704,3.392-1.612l-1.075,5.418l-0.704,0.124
			c-2.729,0.538-3.349,0.581-5.377,0.581c-3.848,0-6.41-0.746-8.602-2.481c-2.356-1.904-3.639-4.673-3.639-7.858
			c0-6.247,4.798-10.463,11.87-10.463c1.405,0,3.267,0.165,5.334,0.454l0.415,0.042L183.165,33.503z"/>
		<path fill="#FFFFFF" d="M185.192,38.466c0-6.162,4.714-10.545,11.373-10.545s11.125,4.011,11.125,10.008
			c0,6.328-4.632,10.793-11.249,10.793C189.742,48.723,185.192,44.587,185.192,38.466z M202.563,38.301
			c0-4.053-2.401-6.658-6.122-6.658c-3.722,0-6.08,2.646-6.08,6.743c0,4.012,2.439,6.7,6.08,6.7
			C200.163,45.083,202.563,42.436,202.563,38.301z"/>
		<path fill="#FFFFFF" d="M210.915,38.466c0-6.162,4.715-10.545,11.372-10.545c6.659,0,11.127,4.011,11.127,10.008
			c0,6.328-4.633,10.793-11.251,10.793C215.463,48.723,210.915,44.587,210.915,38.466z M228.284,38.301
			c0-4.053-2.397-6.658-6.12-6.658s-6.079,2.646-6.079,6.743c0,4.012,2.438,6.7,6.079,6.7
			C225.887,45.083,228.284,42.436,228.284,38.301z"/>
		<path fill="#FFFFFF" d="M237.918,45.043V34.33v-0.91v-1.077c-0.042-1.571-0.206-2.026-1.074-2.769l5.955-1.779v1.737
			c1.902-1.2,3.267-1.611,5.376-1.611c2.771,0,5.212,0.95,6.577,2.604c1.157,1.366,1.488,3.143,1.488,7.569v6.947
			c0,1.696,0.372,2.48,1.447,3.143h-7.774c1.115-0.662,1.446-1.446,1.446-3.143v-7.815v-1.489c-0.041-1.613-0.207-2.235-0.785-2.978
			c-0.703-0.786-1.695-1.158-3.101-1.158c-2.769,0-4.674,1.778-4.674,4.301v9.139c0,1.696,0.372,2.48,1.446,3.143h-7.773
			C237.588,47.523,237.918,46.738,237.918,45.043z"/>
		<path fill="#FFFFFF" d="M116.037,77.65V56.392c0-1.737-0.331-2.48-1.446-3.185h11.001c5.789,0,9.181,2.564,9.181,6.99
			c0,1.364-0.373,2.522-1.116,3.515c-0.414,0.538-0.786,0.827-1.695,1.489c3.266,1.323,4.714,3.474,4.714,6.906
			c0,2.647-0.993,4.882-2.812,6.37c-2.108,1.696-4.424,2.315-9.058,2.315h-10.215C115.707,80.132,116.037,79.345,116.037,77.65z
			 M123.318,63.63c2.646,0,3.557-0.122,4.59-0.579c1.076-0.496,1.612-1.407,1.612-2.688c0-2.15-1.572-3.268-4.674-3.268h-3.804
			v6.535H123.318z M123.814,76.905c2.069,0,3.227-0.084,4.135-0.289c2.151-0.496,3.432-2.068,3.432-4.301
			c0-1.572-0.619-2.812-1.777-3.639c-1.241-0.869-2.565-1.158-5.211-1.158h-3.35v9.388L123.814,76.905L123.814,76.905z"/>
		<path fill="#FFFFFF" d="M140.935,77.65V57.094v-0.95V55.11c-0.041-1.611-0.208-2.068-1.076-2.812l5.955-1.778v27.13
			c0,1.696,0.374,2.481,1.447,3.143h-7.775C140.604,80.132,140.935,79.345,140.935,77.65z"/>
		<path fill="#FFFFFF" d="M150.405,71.073c0-6.162,4.717-10.545,11.378-10.545c6.659,0,11.125,4.012,11.125,10.008
			c0,6.327-4.632,10.793-11.25,10.793C154.957,81.331,150.405,77.194,150.405,71.073z M167.781,70.908
			c0-4.053-2.4-6.658-6.122-6.658s-6.082,2.646-6.082,6.743c0,4.011,2.441,6.699,6.082,6.699
			C165.381,77.69,167.781,75.044,167.781,70.908z"/>
		<path fill="#FFFFFF" d="M176.464,68.51c0-4.591,4.093-7.981,9.595-7.981c1.324,0,2.026,0.082,3.887,0.495l5.915-2.191l3.846,3.723
			c-0.495-0.041-0.743-0.041-1.034-0.041c-1.157,0-2.729,0.288-4.3,0.868c1.242,1.281,1.904,2.978,1.904,5.004
			c0,4.632-4.137,8.064-9.804,8.064c-1.488,0-3.018-0.248-4.217-0.661c-0.786-0.288-1.2-0.497-2.151-1.076
			c-0.249,0.331-0.289,0.496-0.289,0.786c0,1.488,1.985,2.438,5.086,2.438l6.576,0.042c3.394,0.042,5.625,1.943,5.625,4.839
			c0,4.179-4.839,7.197-11.581,7.197c-5.955,0-9.968-2.566-9.968-6.412c0-1.489,0.54-2.604,1.82-3.681
			c-1.571-1.158-2.068-2.108-2.068-3.723c0-1.819,0.455-2.688,2.233-4.136C176.669,70.618,176.464,69.834,176.464,68.51z
			 M180.393,83.439c0,1.944,1.902,2.978,5.5,2.978c3.889,0,6.369-1.199,6.369-3.101c0-1.116-0.786-1.696-2.356-1.696l-3.764,0.083
			h-0.538c-1.529,0-2.275-0.043-4.301-0.249C180.599,82.198,180.393,82.654,180.393,83.439z M186.39,72.646
			c2.73,0,4.715-1.738,4.715-4.135c0-2.481-1.984-4.221-4.798-4.221c-2.769,0-4.672,1.697-4.672,4.095
			C181.634,70.908,183.577,72.646,186.39,72.646z"/>
	</g>
</g>
</svg>
