<?xml version="1.0" encoding="utf-8"?>
<!-- Generator: Adobe Illustrator 16.0.0, SVG Export Plug-In . SVG Version: 6.00 Build 0)  -->
<!DOCTYPE svg PUBLIC "-//W3C//DTD SVG 1.1//EN" "http://www.w3.org/Graphics/SVG/1.1/DTD/svg11.dtd">
<svg version="1.1" id="Layer_1" xmlns="http://www.w3.org/2000/svg" xmlns:xlink="http://www.w3.org/1999/xlink" x="0px" y="0px"
	 width="300.553px" height="102.986px" viewBox="0 0 300.553 102.986" enable-background="new 0 0 300.553 102.986"
	 xml:space="preserve">
<g>
	<g>
		<path fill="#FFFFFF" d="M61.466,10.54c-22.617,0-40.952,18.336-40.952,40.953s18.335,40.953,40.952,40.953
			s40.952-18.336,40.952-40.953C102.418,28.877,84.084,10.54,61.466,10.54z M38.11,23.207c0.519-0.382,1.746-0.153,4.822,1.98
			c5.38,3.736,6.051,4.844,6.379,9.592c0.196,2.854,0.628,5.018-0.079,7.86c-0.107,0.433-0.833,1.572-1.34,2.45
			c0-2.077,0.05-4.354-0.098-5.837c-0.266-2.695-2.042-5.269-2.945-6.131c-4.023,8.333,2.54,18.482,2.54,18.482
			s-5.031-3.192-6.354-5.826c-2.514-5.01-4.707-9.568-4.705-15.747C36.334,27.519,37.003,24.019,38.11,23.207z M90.105,71.548
			c-0.153,0.115-0.367,0.229-0.661,0.34c-1.804,0.667-6.968,1.066-12.028-1.25c3.022,0.551,6.726,1.176,10.202,0.451
			c-0.072-0.183-0.125-0.391-0.144-0.636c-0.051-0.664,0.006-1.335-0.023-2.002c-0.078-1.817,0.141-3.73-0.911-5.12
			c-1.58-2.091-3.577-3.813-6.271-4.622c-1.088-0.325-5.653-0.63-8.594,0.046c-3.362,0.773-4.966,1.401-7.499,3.608
			c-4.465,3.898-3.213,6.069-1.543,7.822c1.351,1.417,7.475,2.458,7.475,2.458c-5.943,2.781-9.56,2.349-13.159,2.217
			c-3.844-0.14-11.387-3.004-17.822-9.1c-5.518-5.229-8.638-12.104-8.638-12.104s4.689,4.135,9.774,5.81
			c-3.606-2.575-4.906-6.431-4.906-6.431s6.238,8.219,12.421,6.192c3.496-2.046,4.529-4.577,6.831-6.829
			c1.146-1.122,2.361-2.069,3.661-2.811l0,0c0,0,5.515-4.178,12.349-2.655c-0.249-0.307-0.501-0.62-0.751-0.95
			c-3.06-4.025-9.777-8.528-18.544-8.125c0,0,1.314-1.029,7.058-1.816c1.467-0.201,3.194-6.051,5.834-8.105
			c3.257-2.535,3.968-2.519,5.08-2.752c2.254-0.476,1.676,3.38,1.754,4.723c0.187,3.271,0.37,4.591-0.813,6.995
			c-0.395,0.798-0.983,1.883-2.504,3.18c1.699,0.995,3.883,3.162,5.392,4.58c1.27,1.188,6.147,5.18,6.349,6.942
			c0.281,2.476,0.271,3.1,0.677,3.777c1.457,2.439,3.811,3.835,5.948,5.489c0.507,0.394,1.129,0.634,1.665,0.993
			c1.643,1.111,3.036,1.625,4.844,2.356c1.334,0.542,1.785,1.222,1.313,2.505C93.19,68.713,92.124,70.542,90.105,71.548z"/>
		<path fill="#FFFFFF" d="M69.139,51.918c-0.067-0.07-0.137-0.141-0.207-0.211c-0.026-0.023-0.054-0.051-0.082-0.079
			c-0.027-0.025-0.057-0.052-0.085-0.08c-0.867-0.84-4.094-0.792-5.086-0.211c-1.364,0.802-1.378,0.502-0.62,1.745
			c0.754,1.245,2.861,1.688,4.44,1.637c0.749-0.023,1.418-0.063,2.063-0.148C69.01,54.177,68.107,53.255,69.139,51.918z"/>
	</g>
	<g>
		<path fill="#FFFFFF" d="M116.037,45.043V23.785c0-1.737-0.331-2.48-1.446-3.185h7.113c0.373,0,1.281,0.042,2.646,0.042
			c2.77,0.042,3.804,0.165,5.087,0.538c3.019,0.91,4.881,3.392,4.881,6.535c0,1.488-0.414,2.854-1.2,3.97
			c-0.95,1.408-1.943,1.984-4.135,2.524c0.495,0.372,0.662,0.537,1.365,1.487l0.619,0.746l0.373,0.496l5.831,7.774
			c0.041,0.082,0.207,0.288,0.496,0.661c0.58,0.827,0.993,1.282,1.53,1.654c0.538,0.415,0.788,0.58,2.151,1.157h-7.857l-7.321-9.965
			c-1.776-2.44-2.935-3.144-5.127-3.269v10.091c0,1.696,0.331,2.481,1.447,3.143h-7.9C115.707,47.523,116.037,46.738,116.037,45.043
			z M122.78,31.311c1.282,0,2.192-0.041,2.978-0.207c1.819-0.331,3.02-1.696,3.02-3.434c0-2.272-1.612-3.226-5.418-3.226h-0.951
			l-1.366,0.042v6.783C121.912,31.311,122.284,31.311,122.78,31.311z"/>
		<path fill="#FFFFFF" d="M156.118,46.406c-1.531,1.572-3.726,2.315-6.663,2.315c-5.169,0-8.188-2.357-8.188-6.37
			c0-4.755,4.054-7.362,11.375-7.362c0.828,0,1.407,0.042,2.73,0.166c0-1.199-0.042-1.489-0.248-1.942
			c-0.497-1.076-1.861-1.611-4.221-1.611c-1.449,0-2.814,0.165-4.054,0.496c-1.323,0.331-2.192,0.661-4.221,1.653l1.53-5.294
			c0.704-0.083,1.241-0.165,1.572-0.207c1.902-0.25,3.103-0.331,4.715-0.331c2.606,0,4.47,0.248,6.207,0.826
			c1.078,0.373,1.944,0.91,2.482,1.531c0.827,0.993,1.076,2.109,1.076,5.418v6.947c0,1.407,0.083,2.399,0.29,3.475
			c0.165,0.868,0.288,1.241,0.702,2.067h-4.923C156.2,47.731,156.158,47.359,156.118,46.406z M152.518,38.342
			c-4.097,0-6.288,1.282-6.288,3.6c0,1.985,1.572,3.267,4.014,3.267c3.353,0,5.171-1.942,5.171-5.5c0-0.374,0-0.785-0.042-1.2
			C153.966,38.385,153.386,38.342,152.518,38.342z"/>
		<path fill="#FFFFFF" d="M183.165,33.503c-2.148-1.157-4.3-1.736-6.533-1.736c-4.054,0-6.616,2.563-6.616,6.574
			c0,4.056,2.604,6.617,6.658,6.617c1.24,0,2.522-0.249,4.094-0.745c1.28-0.455,1.902-0.703,3.392-1.611l-1.075,5.418l-0.704,0.124
			c-2.729,0.538-3.349,0.581-5.377,0.581c-3.848,0-6.41-0.746-8.602-2.481c-2.356-1.904-3.639-4.673-3.639-7.857
			c0-6.247,4.798-10.464,11.869-10.464c1.405,0,3.268,0.165,5.334,0.454l0.415,0.042L183.165,33.503z"/>
		<path fill="#FFFFFF" d="M205.178,33.503c-2.148-1.157-4.3-1.736-6.533-1.736c-4.054,0-6.616,2.563-6.616,6.574
			c0,4.056,2.604,6.617,6.658,6.617c1.24,0,2.522-0.249,4.094-0.745c1.28-0.455,1.902-0.703,3.392-1.611l-1.075,5.418l-0.704,0.124
			c-2.729,0.538-3.349,0.581-5.377,0.581c-3.848,0-6.41-0.746-8.602-2.481c-2.356-1.904-3.639-4.673-3.639-7.857
			c0-6.247,4.798-10.464,11.869-10.464c1.405,0,3.268,0.165,5.334,0.454l0.415,0.042L205.178,33.503z"/>
		<path fill="#FFFFFF" d="M207.206,38.466c0-6.161,4.714-10.545,11.373-10.545s11.125,4.012,11.125,10.009
			c0,6.327-4.632,10.793-11.249,10.793C211.756,48.723,207.206,44.587,207.206,38.466z M224.577,38.302
			c0-4.054-2.401-6.658-6.122-6.658c-3.722,0-6.08,2.646-6.08,6.743c0,4.012,2.438,6.699,6.08,6.699
			C222.177,45.083,224.577,42.436,224.577,38.302z"/>
		<path fill="#FFFFFF" d="M232.928,38.466c0-6.161,4.715-10.545,11.372-10.545c6.659,0,11.127,4.012,11.127,10.009
			c0,6.327-4.633,10.793-11.251,10.793C237.476,48.723,232.928,44.587,232.928,38.466z M250.298,38.302
			c0-4.054-2.396-6.658-6.12-6.658c-3.723,0-6.079,2.646-6.079,6.743c0,4.012,2.438,6.699,6.079,6.699
			C247.901,45.083,250.298,42.436,250.298,38.302z"/>
		<path fill="#FFFFFF" d="M259.931,45.043V34.33v-0.91v-1.076c-0.042-1.571-0.206-2.026-1.074-2.77l5.955-1.779v1.737
			c1.902-1.2,3.268-1.611,5.376-1.611c2.771,0,5.213,0.95,6.577,2.604c1.157,1.366,1.488,3.143,1.488,7.569v6.946
			c0,1.696,0.372,2.48,1.447,3.144h-7.774c1.115-0.662,1.446-1.446,1.446-3.144v-7.814v-1.489c-0.041-1.613-0.207-2.235-0.785-2.978
			c-0.703-0.786-1.695-1.158-3.101-1.158c-2.77,0-4.675,1.777-4.675,4.301v9.139c0,1.696,0.372,2.48,1.446,3.144h-7.772
			C259.601,47.523,259.931,46.738,259.931,45.043z"/>
		<path fill="#FFFFFF" d="M116.037,77.65V56.392c0-1.737-0.331-2.48-1.446-3.186h11.001c5.789,0,9.182,2.564,9.182,6.99
			c0,1.364-0.373,2.522-1.116,3.515c-0.414,0.538-0.786,0.827-1.695,1.489c3.267,1.323,4.714,3.474,4.714,6.906
			c0,2.646-0.992,4.882-2.812,6.37c-2.108,1.695-4.424,2.314-9.058,2.314h-10.216C115.707,80.132,116.037,79.345,116.037,77.65z
			 M123.318,63.63c2.646,0,3.557-0.122,4.59-0.578c1.076-0.496,1.612-1.407,1.612-2.688c0-2.15-1.572-3.268-4.674-3.268h-3.805
			v6.534H123.318z M123.814,76.905c2.068,0,3.227-0.084,4.135-0.289c2.151-0.496,3.432-2.068,3.432-4.301
			c0-1.572-0.618-2.813-1.776-3.639c-1.241-0.869-2.565-1.158-5.211-1.158h-3.351v9.388L123.814,76.905L123.814,76.905z"/>
		<path fill="#FFFFFF" d="M140.935,77.65V57.094v-0.95V55.11c-0.041-1.611-0.208-2.068-1.076-2.813l5.955-1.777v27.13
			c0,1.696,0.374,2.48,1.447,3.143h-7.775C140.604,80.132,140.935,79.345,140.935,77.65z"/>
		<path fill="#FFFFFF" d="M150.405,71.073c0-6.162,4.717-10.545,11.378-10.545c6.659,0,11.125,4.012,11.125,10.008
			c0,6.327-4.632,10.793-11.25,10.793C154.957,81.331,150.405,77.194,150.405,71.073z M167.781,70.908
			c0-4.053-2.4-6.658-6.122-6.658s-6.082,2.646-6.082,6.743c0,4.011,2.441,6.699,6.082,6.699
			C165.381,77.69,167.781,75.044,167.781,70.908z"/>
		<path fill="#FFFFFF" d="M176.464,68.51c0-4.592,4.094-7.981,9.596-7.981c1.323,0,2.025,0.082,3.887,0.495l5.915-2.191l3.846,3.724
			c-0.495-0.041-0.743-0.041-1.034-0.041c-1.156,0-2.729,0.288-4.3,0.867c1.242,1.281,1.904,2.979,1.904,5.005
			c0,4.632-4.137,8.063-9.804,8.063c-1.488,0-3.019-0.248-4.218-0.661c-0.785-0.288-1.199-0.497-2.15-1.076
			c-0.249,0.331-0.289,0.496-0.289,0.786c0,1.488,1.984,2.438,5.086,2.438l6.576,0.042c3.394,0.042,5.625,1.942,5.625,4.839
			c0,4.179-4.839,7.197-11.581,7.197c-5.955,0-9.968-2.566-9.968-6.412c0-1.489,0.539-2.604,1.819-3.682
			c-1.57-1.157-2.067-2.107-2.067-3.723c0-1.819,0.455-2.688,2.232-4.136C176.669,70.618,176.464,69.834,176.464,68.51z
			 M180.393,83.439c0,1.943,1.901,2.978,5.5,2.978c3.889,0,6.369-1.198,6.369-3.101c0-1.116-0.786-1.696-2.356-1.696l-3.764,0.083
			h-0.538c-1.529,0-2.275-0.043-4.301-0.249C180.599,82.198,180.393,82.654,180.393,83.439z M186.39,72.646
			c2.729,0,4.715-1.738,4.715-4.135c0-2.481-1.984-4.222-4.798-4.222c-2.77,0-4.673,1.697-4.673,4.096
			C181.634,70.908,183.577,72.646,186.39,72.646z"/>
	</g>
</g>
</svg>
