<?xml version="1.0" encoding="utf-8"?>
<!-- Generator: Adobe Illustrator 16.0.0, SVG Export Plug-In . SVG Version: 6.00 Build 0)  -->
<!DOCTYPE svg PUBLIC "-//W3C//DTD SVG 1.1//EN" "http://www.w3.org/Graphics/SVG/1.1/DTD/svg11.dtd">
<svg version="1.1" id="Layer_1" xmlns="http://www.w3.org/2000/svg" xmlns:xlink="http://www.w3.org/1999/xlink" x="0px" y="0px"
	 width="1237.05px" height="167.297px" viewBox="0 100.297 1237.05 167.297" enable-background="new 0 100.297 1237.05 167.297"
	 xml:space="preserve">
<g>
	<path fill="#FFFF98" d="M33.933,195.901l-7.343,28.006c-0.683,2.734-0.854,2.904-3.757,2.904H5.926
		c-2.563,0-3.416-0.514-3.416-1.881c0-0.682,0-0.852,0.512-2.217l33.643-110.146c0.853-2.734,1.023-2.902,3.756-2.902h17.761
		c2.732,0,2.903,0.168,3.755,2.902L95.58,222.713c0.34,1.193,0.511,1.705,0.511,2.217c0,1.367-0.852,1.881-3.414,1.881H74.063
		c-2.901,0-3.245-0.17-3.926-2.904l-7.342-28.006H33.933z M58.352,179.85l-6.318-29.201c-1.536-7.002-2.05-10.076-4.269-23.054
		c-1.537,9.904-2.221,13.832-4.441,23.054l-6.83,29.201H58.352z"/>
	<path fill="#FFFF98" d="M127.678,185.656c2.903,11.953,4.611,18.955,6.66,29.541c1.367-7.512,1.708-9.563,2.562-14.344
		c0.514-2.902,1.025-5.635,1.536-7.855l1.708-7.342l9.563-41.838c0.341-2.051,0.853-2.563,1.879-2.563c0.169,0,0.683,0,1.367,0.17
		l15.027,1.707c2.049,0.172,2.732,0.684,2.732,1.709c0,0.51,0,0.51-0.341,1.705l-17.078,62.502
		c-1.023,3.414-2.048,7.342-2.903,11.271c-5.975,24.248-8.025,29.713-12.977,35.52c-5.123,6.146-11.613,8.877-20.664,8.877
		c-9.562,0-23.396-4.609-23.396-8.025c0-0.514,0-0.514,0.683-1.879l5.293-10.93c0.341-0.682,1.023-1.195,1.537-1.195
		c0.34,0,0.853,0.17,1.366,0.514c5.293,2.561,9.222,3.756,13.148,3.756c7.173,0,10.416-3.074,13.321-12.977l2.05-7.172h-7.172
		c-2.22,0-2.39-0.172-3.246-2.221l-26.81-77.871c-0.513-1.195-0.513-1.365-0.513-1.877c0-1.023,0.684-1.537,2.732-1.709
		l17.419-1.879h1.196c1.023,0,1.536,0.514,2.048,2.391L127.678,185.656z"/>
	<path fill="#FFFF98" d="M196.151,190.436c0.341,14.688,6.318,21.518,18.954,21.518c6.318,0,12.979-1.879,19.468-5.293
		c0.853-0.512,1.707-0.684,2.219-0.684c0.855,0,1.367,0.514,1.88,1.537l4.27,10.244c0.511,1.025,0.511,1.197,0.511,1.881
		c0,1.879-1.366,2.902-7.001,5.291c-7.512,3.246-15.197,4.785-23.564,4.785c-10.929,0-19.468-2.734-25.445-8.371
		c-8.196-7.342-12.807-20.49-12.807-36.029c0-27.494,14.857-45.768,37.397-45.768c22.542,0,33.813,15.541,33.813,46.621
		c0,3.416-0.684,4.268-3.758,4.268H196.151z M223.131,174.555c-0.341-14.174-3.756-19.467-12.465-19.467
		c-8.708,0-12.637,5.465-14.174,19.467H223.131z"/>
	<path fill="#FFFF98" d="M276.234,139.035c0.514-0.17,1.367-0.34,1.708-0.34c2.049,0,4.269,4.268,6.147,11.783
		c8.54-7.857,15.882-10.93,25.616-10.93c15.198,0,22.029,8.369,22.029,26.982v57.377c0,2.563-0.34,2.904-2.903,2.904H312.95
		c-2.562,0-2.903-0.342-2.903-2.904v-52.596c0-10.074-2.903-14.344-9.735-14.344c-4.952,0-8.878,1.879-14.856,7.002v59.938
		c0,2.563-0.342,2.904-2.903,2.904h-15.881c-2.562,0-2.903-0.342-2.903-2.904v-57.377c0-7.344-1.196-13.492-3.585-18.613
		c-0.341-0.686-0.514-1.197-0.514-1.709s0.514-1.195,1.366-1.535L276.234,139.035z"/>
	<path fill="#FFFF98" d="M406.522,228.688c-0.684,0.34-1.195,0.514-1.707,0.514c-1.708,0-3.586-3.586-4.611-8.709
		c-7.512,6.148-15.71,9.223-23.906,9.223c-17.76,0-27.836-15.883-27.836-43.547c0-16.734,3.074-28.008,10.076-36.375
		c5.635-6.66,12.977-10.246,21.687-10.246c5.976,0,10.758,1.367,16.905,4.781v-34.664c0-2.22,0.169-2.564,2.562-3.073l15.881-3.247
		l1.537-0.169c1.195,0,1.707,0.853,1.707,2.903v99.729c0,7.172,0.34,8.539,3.072,14.686c0.171,0.512,0.341,0.852,0.341,1.023
		c0,0.682-0.512,1.197-1.536,1.537L406.522,228.688z M397.13,159.869c-4.099-2.049-8.027-3.074-12.295-3.074
		c-10.759,0-14.686,7.516-14.686,28.178c0,19.809,3.927,28.006,13.32,28.006c5.293,0,9.903-2.051,13.661-5.977V159.869z"/>
	<path fill="#FFFF98" d="M458.601,190.436c0.341,14.688,6.319,21.518,18.956,21.518c6.318,0,12.978-1.879,19.466-5.293
		c0.855-0.512,1.708-0.684,2.221-0.684c0.852,0,1.366,0.514,1.878,1.537l4.269,10.244c0.513,1.025,0.513,1.197,0.513,1.881
		c0,1.879-1.366,2.902-7.001,5.291c-7.514,3.246-15.199,4.785-23.567,4.785c-10.929,0-19.467-2.734-25.444-8.371
		c-8.196-7.342-12.808-20.49-12.808-36.029c0-27.494,14.857-45.768,37.398-45.768c22.54,0,33.811,15.541,33.811,46.621
		c0,3.416-0.682,4.268-3.756,4.268H458.601z M485.583,174.555c-0.341-14.174-3.757-19.467-12.465-19.467
		c-8.71,0-12.638,5.465-14.175,19.467H485.583z"/>
	<path fill="#FFFF98" d="M653.266,157.307c0.512-1.365,1.365-1.879,2.734-1.879h9.902c1.195,0,2.05,0.684,2.05,1.709l-0.171,1.707
		l-7.685,36.543c-0.341,1.023-0.514,3.246-0.514,4.441c0,3.584,2.05,5.121,6.83,5.121c13.322,0,24.421-17.078,24.421-37.91
		c0-24.76-17.078-39.617-45.083-39.617c-18.783,0-33.473,5.805-45.084,17.588c-12.125,12.465-19.638,31.594-19.638,50.205
		c0,14.857,4.954,27.324,14.346,36.033c8.878,8.195,20.663,11.953,37.909,11.953c17.249,0,34.838-3.926,49.011-10.93
		c1.537-0.854,2.389-1.021,3.074-1.021c0.683,0,1.366,0.512,1.537,1.021l2.903,7.686c0.681,1.535,0.681,1.535,0.681,2.051
		c0,0.854-0.853,1.705-2.562,2.732c-11.271,7.342-34.151,12.465-55.67,12.465c-22.369,0-38.081-5.123-49.522-16.225
		c-11.441-11.098-18.101-28.006-18.101-46.277c0-22.199,9.562-44.57,25.103-59.426c14.857-14.175,34.835-21.859,56.865-21.859
		c19.298,0,36.376,6.148,46.449,16.396c8.538,8.877,13.661,22.2,13.661,36.03c0,29.715-20.492,52.596-46.959,52.596
		c-9.563,0-14.517-3.586-16.053-11.781c-6.318,8.367-12.465,11.781-20.492,11.781c-9.394,0-15.029-7.512-15.029-20.32
		c0-14.174,5.293-28.178,14.002-37.398c4.271-4.609,10.417-7.342,16.564-7.342c5.466,0,10.075,1.879,13.661,5.807L653.266,157.307z
		 M648.657,169.776c-3.586-3.074-5.638-4.1-8.71-4.1c-3.586,0-6.318,2.049-8.709,6.318c-3.244,5.979-6.148,18.443-6.148,26.301
		c0,4.268,1.708,6.658,4.783,6.658c3.585,0,7.854-2.563,10.586-5.977c1.88-2.391,3.075-5.467,4.1-10.074L648.657,169.776z"/>
	<path fill="#FFFF98" d="M846.734,220.492c0.514,0.852,0.854,1.879,0.854,2.563c0,0.852-0.684,1.535-2.732,2.047l-15.198,4.27
		c-1.537,0.516-1.537,0.516-2.048,0.516c-0.855,0-1.367-0.516-2.393-2.393l-24.076-48.668h-9.052v44.398
		c0,3.074-0.513,3.588-3.587,3.588h-15.709c-3.245,0-3.588-0.342-3.588-4.098V113.251c0-3.247,0.343-3.586,3.588-3.586h27.834
		c12.808,0,19.298,1.196,25.273,4.438c9.735,5.466,14.515,15.199,14.515,29.202c0,15.711-5.635,25.445-19.125,32.617
		L846.734,220.492z M796.869,160.723c15.03,0,20.322-4.609,20.322-17.588c0-12.125-4.608-16.052-18.443-16.052h-6.659v33.642h4.78
		V160.723z"/>
	<path fill="#FFFF98" d="M898.986,169.09c0-9.732-2.732-12.807-11.271-12.807c-5.124,0-11.612,1.537-19.127,4.439
		c-0.683,0.342-1.365,0.514-1.879,0.514c-0.854,0-1.367-0.514-1.708-1.709l-3.585-10.244c-0.171-0.514-0.342-1.365-0.342-1.879
		c0-3.586,15.542-7.855,29.204-7.855c13.49,0,22.71,4.439,26.639,13.148c1.707,3.586,2.388,7.684,2.388,14.174v34.836
		c0,7.514,1.025,12.465,3.929,18.443c0.339,0.682,0.513,1.367,0.513,1.879c0,0.686-0.513,1.367-1.367,1.707l-13.319,5.293
		c-0.514,0.342-1.535,0.514-2.052,0.514c-1.536,0-3.242-3.246-5.122-10.076c-6.83,7.002-12.979,9.734-21.856,9.734
		c-15.71,0-25.616-10.074-25.616-25.785c0-15.199,8.197-24.248,25.443-27.492c4.441-1.025,9.735-1.369,19.126-1.537v-5.297H898.986z
		 M898.986,188.559c-17.077,0-23.906,3.756-23.906,13.662c0,6.66,4.78,11.781,10.929,11.781c4.609,0,8.878-2.219,12.978-6.66
		V188.559z"/>
	<path fill="#FFFF98" d="M965.921,149.451c7-6.658,14.514-9.904,23.564-9.904c8.197,0,15.201,3.414,18.784,9.221
		c2.564,4.27,3.417,8.881,3.417,17.59v57.549c0,2.561-0.343,2.904-2.903,2.904h-15.881c-2.562,0-2.903-0.344-2.903-2.904v-52.598
		c0-10.416-2.562-14.344-9.391-14.344c-5.125,0-9.052,1.879-14.688,7.002v59.939c0,2.561-0.339,2.904-2.899,2.904h-15.885
		c-2.561,0-2.902-0.344-2.902-2.904V109.664c0-2.392,0.171-2.564,2.563-3.075l15.881-3.246c0.514-0.17,1.194-0.17,1.536-0.17
		c1.197,0,1.709,0.853,1.709,2.903v43.375H965.921z"/>
	<path fill="#FFFF98" d="M1025.852,158.334c-2.562,0-2.903-0.344-2.903-2.904v-10.076c0-2.561,0.342-2.902,2.903-2.902h31.764
		c2.563,0,2.901,0.342,2.901,2.902v78.553c0,2.563-0.339,2.904-2.901,2.904h-15.883c-2.562,0-2.903-0.342-2.903-2.904v-65.572
		H1025.852z M1062.91,117.349c0,7.684-6.148,13.832-13.832,13.832c-7.687,0-13.832-6.149-13.832-14.003
		c0-7.511,6.319-13.661,14.004-13.661C1056.761,103.517,1062.91,109.833,1062.91,117.349z"/>
	<path fill="#FFFF98" d="M1100.472,190.436c0.343,14.688,6.319,21.518,18.955,21.518c6.318,0,12.98-1.879,19.468-5.293
		c0.854-0.512,1.706-0.684,2.22-0.684c0.854,0,1.367,0.514,1.88,1.537l4.269,10.244c0.512,1.025,0.512,1.197,0.512,1.881
		c0,1.879-1.363,2.902-7,5.291c-7.513,3.246-15.199,4.785-23.567,4.785c-10.93,0-19.468-2.734-25.442-8.371
		c-8.197-7.342-12.809-20.49-12.809-36.029c0-27.494,14.857-45.768,37.399-45.768c22.539,0,33.81,15.541,33.81,46.621
		c0,3.416-0.683,4.268-3.754,4.268H1100.472z M1127.456,174.555c-0.342-14.174-3.757-19.467-12.467-19.467
		c-8.707,0-12.636,5.465-14.172,19.467H1127.456z"/>
	<path fill="#FFFF98" d="M1180.56,139.035c0.51-0.17,1.364-0.34,1.704-0.34c2.051,0,4.271,4.268,6.15,11.783
		c8.539-7.857,15.881-10.93,25.613-10.93c15.2,0,22.032,8.369,22.032,26.982v57.377c0,2.563-0.342,2.904-2.903,2.904h-15.881
		c-2.563,0-2.903-0.342-2.903-2.904v-52.596c0-10.074-2.902-14.344-9.735-14.344c-4.951,0-8.877,1.879-14.857,7.002v59.938
		c0,2.563-0.339,2.904-2.904,2.904h-15.88c-2.562,0-2.902-0.342-2.902-2.904v-57.377c0-7.344-1.194-13.492-3.588-18.613
		c-0.34-0.686-0.51-1.197-0.51-1.709s0.51-1.195,1.364-1.535L1180.56,139.035z"/>
</g>
</svg>
