<?xml version="1.0" encoding="utf-8"?>
<!-- Generator: Adobe Illustrator 16.0.0, SVG Export Plug-In . SVG Version: 6.00 Build 0)  -->
<!DOCTYPE svg PUBLIC "-//W3C//DTD SVG 1.1//EN" "http://www.w3.org/Graphics/SVG/1.1/DTD/svg11.dtd">
<svg version="1.1" id="Layer_1" xmlns="http://www.w3.org/2000/svg" xmlns:xlink="http://www.w3.org/1999/xlink" x="0px" y="0px"
	 width="205.844px" height="176.678px" viewBox="0 0 205.844 176.678" enable-background="new 0 0 205.844 176.678"
	 xml:space="preserve">
<g id="Layer_1_1_">
	<g>
		<path fill="#FFFFCA" d="M203.33,57.186c-6.737,9.438-13.669,18.727-22.028,26.821c-6.056,5.862-12.588,11.083-20.797,13.684
			c-7.026,2.229-13.764,1.665-20.237-2.322c7.061-11.766,13.592-23.588,14.107-37.652c-1.361,1.218-2.409,2.613-3.583,3.895
			c-7.112,7.769-14.883,14.68-24.61,19.108c-2.975,1.354-5.455,1.448-7.604-1.426c-1.101-1.47-2.604-2.64-3.69-4.121
			c-3.123-4.276-4.087-9.223-4.47-14.104c2.719,0.557,5.209,1.559,7.647,1.451c3.522-0.156,6.252-2.383,8.449-5.087
			c5.877-7.241,8.146-15.775,8.644-24.875c0.13-2.352-0.199-4.728-0.336-7.413c-0.946,0.583-1.431,0.869-1.899,1.171
			c-7.326,4.726-15.107,8.452-23.867,9.325c-3.666,0.364-7.432-0.163-10.007-3.634c-2.653-3.58-6.34-5.884-10.313-7.779
			c-0.988-0.476-1.953-1.054-2.834-1.71c-4.333-3.247-8.777-6.309-13.99-7.971c-4.326-1.378-8.694-2.141-13.648,0.318
			c3.273,4.61,6.157,9.175,9.57,13.296c2.193,2.645,3.834,5.125,3.458,8.712c0.193-1.741,0.387-3.479,0.591-5.294
			c3.864,3.955-2.674,17.034-9.764,19.844C65.897,34.357,57.594,8.219,45.729,0c-0.238,0.151-0.569,0.267-0.767,0.493
			C38.384,8.117,32.758,16.33,29.967,26.138c-1.556,5.459-2.554,11.062-0.433,16.615c3.105,8.122,9.082,13.111,17.428,15.273
			c2.266,0.586,4.619,0.831,6.932,1.23c-5.28,0.828-10.477,0.599-15.496-1.264c-7.4-2.745-11.799-8.31-14.141-15.789
			C10.308,57.895-0.063,99.405,0,112.689c4.024-22.611,10.138-41.886,23.55-59.372c-0.268,1.157-0.74,2.238-1.209,3.32
			c-2.865,6.641-6.052,13.164-8.521,19.948C10.095,86.837,7,95.221,5.849,109.979c-0.729,9.314-4.192,25.158-4.192,25.158
			s16.767-7.052,19.54-9.056c2.195-1.583,4.022-3.662,6.06-5.473c0.479-0.425,1.954-1.621,2.22-2.117
			c0.266,0.646,0.637,1.259,1.053,1.752c10.371,12.235,22.194,22.833,35.843,31.321c10.563,6.573,21.618,11.819,34.356,12.423
			c0.855,0.042,1.705,0.448,2.531,0.759c9.926,3.741,19.828,7.562,29.789,11.222c5.258,1.932,13.495-0.264,17.688-4.426h0.005
			l0.026-0.03c0.207-0.21,0.41-0.423,0.601-0.644c-0.009-0.005-0.024-0.011-0.033-0.018l0.969-1.129
			c1.933,0.28,3.865,0.567,5.796,0.844c1.737,0.247,2.439-0.336,2.721-2.282c0.645-4.445,1.781-8.817,2.596-13.24
			c0.217-1.185,0.328-2.576-0.078-3.656c-2.064-5.478-1.472-10.79,0.803-15.977c0.445-1.017,1.639-1.83,2.666-2.438
			c1.789-1.061,3.83-1.717,5.568-2.847c8.922-5.813,14.195-14.645,18.789-23.808c7.229-14.42,11.57-29.806,13.936-45.75
			c0.297-1.979,0.502-3.967,0.747-5.952C204.641,55.378,203.979,56.277,203.33,57.186z M83.44,108.523
			c2.074-4.003,7.223-4.792,10.764-3.346c3.063,1.246,5.699,4.192,4.585,7.327c-1.905,0.466-2.764,1.383-5.86,0.688
			c-2.41-0.541-5.381-2.792-7.469-2.72c0.285-1.746,1.043-2.022,2.578-3.273C86.786,107.479,85.142,107.434,83.44,108.523z"/>
	</g>
</g>
<g id="Layer_2">
</g>
</svg>
