<?xml version="1.0" encoding="utf-8"?>
<!-- Generator: Adobe Illustrator 16.0.0, SVG Export Plug-In . SVG Version: 6.00 Build 0)  -->
<!DOCTYPE svg PUBLIC "-//W3C//DTD SVG 1.1//EN" "http://www.w3.org/Graphics/SVG/1.1/DTD/svg11.dtd">
<svg version="1.1" id="Layer_1" xmlns="http://www.w3.org/2000/svg" xmlns:xlink="http://www.w3.org/1999/xlink" x="0px" y="0px"
	 width="300px" height="300px" viewBox="0 0 300 300" enable-background="new 0 0 300 300" xml:space="preserve">
<title>search icon</title>
<g>
	<title>Layer 1</title>
	<path id="path12423" fill="#7F3F6A" d="M65.9,67.959c-32.476,32.474-32.555,85.675-0.08,118.149
		c27.515,27.516,69.946,31.708,102.005,12.583l57.295,55.711c7.885,7.653,20.326,7.37,27.854-0.634
		c7.529-8.003,7.332-20.598-0.555-28.251l-56.423-54.682c19.784-32.159,15.767-75.083-12.028-102.878
		C151.495,35.484,98.375,35.484,65.9,67.959L65.9,67.959L65.9,67.959z M89.719,91.779c19.589-19.589,50.842-19.589,70.432,0
		c19.589,19.588,19.589,50.842,0,70.434c-19.589,19.589-50.842,19.589-70.432,0C70.131,142.619,70.131,111.366,89.719,91.779z"/>
</g>
</svg>
