<?xml version="1.0" encoding="utf-8"?>
<!-- Generator: Adobe Illustrator 16.0.0, SVG Export Plug-In . SVG Version: 6.00 Build 0)  -->
<!DOCTYPE svg PUBLIC "-//W3C//DTD SVG 1.1//EN" "http://www.w3.org/Graphics/SVG/1.1/DTD/svg11.dtd">
<svg version="1.1" id="Layer_1" xmlns="http://www.w3.org/2000/svg" xmlns:xlink="http://www.w3.org/1999/xlink" x="0px" y="0px"
	 width="25px" height="25px" viewBox="0 0 25 25" enable-background="new 0 0 25 25" xml:space="preserve">
<g id="Layer_1_1_">
	<path fill="#FFFFCA" d="M12.501,0.474C5.858,0.474,0.474,5.859,0.474,12.5c0,6.643,5.385,12.027,12.027,12.027
		c6.642,0,12.024-5.385,12.024-12.027C24.525,5.859,19.143,0.474,12.501,0.474z M18.223,7.987l-5.353,4.374
		c-0.053,0.044-0.109,0.079-0.172,0.105c-0.063,0.027-0.127,0.04-0.197,0.04s-0.137-0.013-0.199-0.04
		c-0.062-0.026-0.119-0.062-0.172-0.105L6.778,7.987H18.223z M19.266,17.012H5.735V8.899l6.33,5.167
		c0.061,0.053,0.129,0.092,0.203,0.119c0.076,0.025,0.152,0.039,0.232,0.039c0.078,0,0.156-0.013,0.23-0.039
		c0.075-0.026,0.143-0.065,0.205-0.119l6.329-5.167v8.113H19.266z"/>
</g>
<g id="Layer_2">
</g>
</svg>
