<?xml version="1.0" encoding="utf-8"?>
<!-- Generator: Adobe Illustrator 16.0.0, SVG Export Plug-In . SVG Version: 6.00 Build 0)  -->
<!DOCTYPE svg PUBLIC "-//W3C//DTD SVG 1.1//EN" "http://www.w3.org/Graphics/SVG/1.1/DTD/svg11.dtd">
<svg version="1.1" xmlns="http://www.w3.org/2000/svg" xmlns:xlink="http://www.w3.org/1999/xlink" x="0px" y="0px" width="25px"
	 height="25px" viewBox="0 0 25 25" enable-background="new 0 0 25 25" xml:space="preserve">
<g id="Layer_1">
	<path fill="#FFFF99" d="M12.501,0.474C5.858,0.474,0.474,5.859,0.474,12.5c0,6.642,5.385,12.027,12.027,12.027
		c6.641,0,12.025-5.385,12.025-12.027C24.526,5.859,19.142,0.474,12.501,0.474z M18.852,18.021l-0.964,0.963
		c-0.172,0.172-0.675,0.279-0.691,0.279c-3.046,0.027-5.979-1.17-8.135-3.325c-2.16-2.162-3.357-5.105-3.326-8.162
		c0-0.002,0.11-0.491,0.282-0.661L6.98,6.152C7.333,5.798,8.01,5.638,8.483,5.796l0.203,0.068c0.473,0.159,0.969,0.681,1.1,1.163
		l0.484,1.778c0.131,0.482-0.045,1.17-0.398,1.522L9.229,10.97c0.631,2.337,2.465,4.171,4.803,4.804l0.643-0.644
		c0.354-0.353,1.041-0.529,1.522-0.399l1.778,0.486c0.48,0.132,1.004,0.625,1.162,1.098l0.068,0.206
		C19.362,16.994,19.204,17.671,18.852,18.021z"/>
</g>
<g id="Layer_2">
</g>
</svg>
