<?xml version="1.0" encoding="utf-8"?>
<!-- Generator: Adobe Illustrator 16.0.0, SVG Export Plug-In . SVG Version: 6.00 Build 0)  -->
<!DOCTYPE svg PUBLIC "-//W3C//DTD SVG 1.1//EN" "http://www.w3.org/Graphics/SVG/1.1/DTD/svg11.dtd">
<svg version="1.1" id="Layer_1" xmlns="http://www.w3.org/2000/svg" xmlns:xlink="http://www.w3.org/1999/xlink" x="0px" y="0px"
	 width="1237.05px" height="167.297px" viewBox="0 0 1237.05 167.297" enable-background="new 0 0 1237.05 167.297"
	 xml:space="preserve">
<g>
	<path fill="#FFFFCA" d="M33.174,95.604l-7.343,28.006c-0.683,2.734-0.854,2.904-3.757,2.904H5.167
		c-2.563,0-3.416-0.514-3.416-1.881c0-0.682,0-0.852,0.512-2.217L35.906,12.27c0.853-2.733,1.023-2.901,3.756-2.901h17.761
		c2.732,0,2.903,0.168,3.755,2.901l33.643,110.146c0.34,1.193,0.511,1.705,0.511,2.217c0,1.367-0.852,1.881-3.414,1.881H73.304
		c-2.901,0-3.245-0.17-3.926-2.904l-7.342-28.006H33.174z M57.593,79.553l-6.318-29.201c-1.536-7.002-2.05-10.076-4.269-23.053
		c-1.537,9.903-2.221,13.832-4.441,23.053l-6.83,29.201H57.593z"/>
	<path fill="#FFFFCA" d="M126.919,85.359c2.903,11.953,4.611,18.955,6.66,29.541c1.367-7.512,1.708-9.563,2.562-14.344
		c0.514-2.902,1.025-5.635,1.536-7.855l1.708-7.342l9.563-41.837c0.341-2.051,0.853-2.563,1.879-2.563c0.169,0,0.683,0,1.367,0.171
		l15.027,1.706c2.049,0.173,2.732,0.685,2.732,1.709c0,0.511,0,0.511-0.341,1.705l-17.078,62.502
		c-1.023,3.414-2.048,7.342-2.903,11.27c-5.975,24.248-8.025,29.713-12.977,35.521c-5.123,6.145-11.613,8.877-20.664,8.877
		c-9.562,0-23.396-4.609-23.396-8.025c0-0.514,0-0.514,0.683-1.879l5.293-10.93c0.341-0.682,1.023-1.195,1.537-1.195
		c0.34,0,0.853,0.17,1.366,0.514c5.293,2.561,9.222,3.756,13.148,3.756c7.173,0,10.416-3.074,13.321-12.977l2.05-7.172h-7.172
		c-2.22,0-2.39-0.172-3.246-2.221L92.764,46.42c-0.513-1.195-0.513-1.365-0.513-1.878c0-1.022,0.684-1.536,2.732-1.709l17.419-1.879
		h1.196c1.023,0,1.536,0.515,2.048,2.392L126.919,85.359z"/>
	<path fill="#FFFFCA" d="M195.392,90.139c0.341,14.689,6.318,21.52,18.954,21.52c6.318,0,12.979-1.879,19.468-5.293
		c0.853-0.514,1.707-0.686,2.219-0.686c0.855,0,1.367,0.516,1.88,1.537l4.27,10.244c0.511,1.025,0.511,1.197,0.511,1.881
		c0,1.879-1.366,2.902-7.001,5.291c-7.512,3.246-15.197,4.785-23.564,4.785c-10.929,0-19.468-2.734-25.445-8.371
		c-8.196-7.342-12.807-20.49-12.807-36.029c0-27.494,14.857-45.767,37.397-45.767c22.542,0,33.813,15.541,33.813,46.621
		c0,3.416-0.684,4.268-3.758,4.268H195.392z M222.372,74.258c-0.341-14.174-3.756-19.467-12.465-19.467
		c-8.708,0-12.637,5.465-14.174,19.467H222.372z"/>
	<path fill="#FFFFCA" d="M275.475,38.739c0.514-0.17,1.367-0.34,1.708-0.34c2.049,0,4.269,4.268,6.147,11.783
		c8.54-7.857,15.882-10.931,25.616-10.931c15.198,0,22.029,8.369,22.029,26.981v57.376c0,2.564-0.34,2.904-2.903,2.904h-15.881
		c-2.562,0-2.903-0.342-2.903-2.904V71.014c0-10.074-2.903-14.344-9.735-14.344c-4.952,0-8.878,1.879-14.856,7.002v59.937
		c0,2.564-0.342,2.904-2.903,2.904h-15.881c-2.562,0-2.903-0.342-2.903-2.904V66.233c0-7.344-1.196-13.491-3.585-18.612
		c-0.341-0.687-0.514-1.196-0.514-1.709s0.514-1.194,1.366-1.535L275.475,38.739z"/>
	<path fill="#FFFFCA" d="M405.763,128.391c-0.684,0.34-1.195,0.516-1.707,0.516c-1.708,0-3.586-3.586-4.611-8.709
		c-7.512,6.146-15.71,9.223-23.906,9.223c-17.76,0-27.836-15.883-27.836-43.547c0-16.734,3.074-28.008,10.076-36.375
		c5.635-6.659,12.977-10.246,21.687-10.246c5.976,0,10.758,1.367,16.905,4.781V9.369c0-2.22,0.169-2.563,2.562-3.073l15.881-3.246
		l1.537-0.17c1.195,0,1.707,0.854,1.707,2.903v99.729c0,7.172,0.34,8.539,3.072,14.686c0.171,0.512,0.342,0.852,0.342,1.023
		c0,0.682-0.513,1.197-1.537,1.537L405.763,128.391z M396.371,59.573c-4.099-2.049-8.027-3.074-12.295-3.074
		c-10.759,0-14.686,7.516-14.686,28.177c0,19.809,3.927,28.006,13.32,28.006c5.293,0,9.903-2.051,13.661-5.977V59.573z"/>
	<path fill="#FFFFCA" d="M457.842,90.139c0.342,14.689,6.319,21.52,18.956,21.52c6.318,0,12.979-1.879,19.467-5.293
		c0.854-0.514,1.707-0.686,2.221-0.686c0.852,0,1.366,0.516,1.878,1.537l4.269,10.244c0.514,1.025,0.514,1.197,0.514,1.881
		c0,1.879-1.366,2.902-7.001,5.291c-7.515,3.246-15.199,4.785-23.567,4.785c-10.929,0-19.467-2.734-25.444-8.371
		c-8.195-7.342-12.808-20.49-12.808-36.029c0-27.494,14.857-45.767,37.398-45.767c22.539,0,33.811,15.541,33.811,46.621
		c0,3.416-0.682,4.268-3.756,4.268H457.842z M484.824,74.258c-0.341-14.174-3.757-19.467-12.465-19.467
		c-8.71,0-12.638,5.465-14.175,19.467H484.824z"/>
	<path fill="#FFFFCA" d="M652.506,57.01c0.514-1.365,1.365-1.879,2.734-1.879h9.902c1.195,0,2.051,0.684,2.051,1.709l-0.172,1.707
		l-7.686,36.542c-0.34,1.023-0.514,3.246-0.514,4.441c0,3.584,2.051,5.121,6.83,5.121c13.322,0,24.422-17.078,24.422-37.91
		c0-24.76-17.078-39.617-45.084-39.617c-18.783,0-33.472,5.805-45.083,17.588c-12.125,12.465-19.638,31.594-19.638,50.205
		c0,14.857,4.954,27.324,14.346,36.033c8.878,8.195,20.663,11.953,37.909,11.953c17.25,0,34.838-3.926,49.012-10.93
		c1.537-0.854,2.389-1.021,3.074-1.021c0.682,0,1.365,0.512,1.537,1.021l2.902,7.686c0.682,1.535,0.682,1.535,0.682,2.051
		c0,0.854-0.854,1.705-2.563,2.732c-11.271,7.342-34.15,12.465-55.67,12.465c-22.37,0-38.082-5.123-49.522-16.225
		c-11.441-11.098-18.102-28.006-18.102-46.277c0-22.199,9.563-44.57,25.104-59.425c14.856-14.176,34.834-21.859,56.864-21.859
		c19.299,0,36.377,6.148,46.449,16.396c8.539,8.877,13.662,22.199,13.662,36.029c0,29.714-20.492,52.595-46.959,52.595
		c-9.563,0-14.518-3.586-16.053-11.781c-6.318,8.367-12.465,11.781-20.492,11.781c-9.394,0-15.03-7.512-15.03-20.318
		c0-14.175,5.294-28.179,14.002-37.398c4.271-4.609,10.416-7.343,16.564-7.343c5.465,0,10.074,1.879,13.66,5.808L652.506,57.01z
		 M647.899,69.479c-3.586-3.073-5.639-4.1-8.711-4.1c-3.586,0-6.318,2.049-8.709,6.318c-3.244,5.979-6.148,18.443-6.148,26.3
		c0,4.268,1.709,6.658,4.783,6.658c3.586,0,7.854-2.563,10.586-5.977c1.881-2.391,3.076-5.467,4.1-10.074L647.899,69.479z"/>
	<path fill="#FFFFCA" d="M845.975,120.195c0.514,0.852,0.854,1.879,0.854,2.563c0,0.852-0.684,1.535-2.732,2.047l-15.197,4.271
		c-1.537,0.516-1.537,0.516-2.047,0.516c-0.855,0-1.367-0.516-2.395-2.393l-24.076-48.668h-9.051v44.397
		c0,3.074-0.514,3.588-3.588,3.588h-15.709c-3.244,0-3.588-0.342-3.588-4.098V12.955c0-3.247,0.344-3.586,3.588-3.586h27.834
		c12.809,0,19.299,1.196,25.273,4.438c9.734,5.465,14.516,15.199,14.516,29.201c0,15.711-5.635,25.445-19.125,32.617
		L845.975,120.195z M796.11,60.426c15.031,0,20.322-4.609,20.322-17.588c0-12.125-4.607-16.052-18.443-16.052h-6.658v33.642h4.779
		V60.426L796.11,60.426z"/>
	<path fill="#FFFFCA" d="M898.227,68.793c0-9.732-2.732-12.807-11.271-12.807c-5.123,0-11.611,1.537-19.127,4.439
		c-0.682,0.342-1.365,0.514-1.879,0.514c-0.854,0-1.367-0.514-1.707-1.709l-3.586-10.244c-0.17-0.514-0.342-1.365-0.342-1.879
		c0-3.586,15.543-7.855,29.205-7.855c13.488,0,22.709,4.439,26.639,13.148c1.707,3.586,2.387,7.684,2.387,14.174v34.835
		c0,7.514,1.025,12.465,3.93,18.443c0.34,0.682,0.514,1.367,0.514,1.879c0,0.686-0.514,1.367-1.367,1.707l-13.32,5.293
		c-0.514,0.342-1.535,0.514-2.051,0.514c-1.537,0-3.242-3.246-5.123-10.076c-6.83,7.002-12.979,9.734-21.855,9.734
		c-15.711,0-25.615-10.074-25.615-25.785c0-15.199,8.195-24.248,25.441-27.492c4.441-1.025,9.736-1.369,19.127-1.537v-5.297H898.227
		z M898.227,88.262c-17.076,0-23.906,3.756-23.906,13.662c0,6.66,4.781,11.781,10.93,11.781c4.609,0,8.877-2.219,12.979-6.66V88.262
		H898.227z"/>
	<path fill="#FFFFCA" d="M965.163,49.155c7-6.658,14.514-9.904,23.564-9.904c8.195,0,15.199,3.414,18.783,9.221
		c2.564,4.271,3.416,8.881,3.416,17.59v57.548c0,2.563-0.342,2.904-2.902,2.904h-15.881c-2.563,0-2.902-0.344-2.902-2.904V71.012
		c0-10.416-2.563-14.344-9.391-14.344c-5.125,0-9.053,1.879-14.689,7.002v59.939c0,2.561-0.338,2.904-2.898,2.904h-15.885
		c-2.561,0-2.902-0.344-2.902-2.904V9.368c0-2.393,0.172-2.564,2.563-3.075l15.881-3.245c0.516-0.171,1.195-0.171,1.537-0.171
		c1.197,0,1.709,0.853,1.709,2.903v43.375H965.163z"/>
	<path fill="#FFFFCA" d="M1025.092,58.038c-2.561,0-2.902-0.344-2.902-2.904V45.057c0-2.561,0.342-2.901,2.902-2.901h31.766
		c2.563,0,2.9,0.342,2.9,2.901v78.552c0,2.564-0.34,2.904-2.9,2.904h-15.883c-2.563,0-2.904-0.342-2.904-2.904V58.039
		L1025.092,58.038L1025.092,58.038z M1062.151,17.053c0,7.684-6.148,13.832-13.832,13.832c-7.688,0-13.832-6.15-13.832-14.004
		c0-7.511,6.318-13.66,14.004-13.66C1056.002,3.221,1062.151,9.537,1062.151,17.053z"/>
	<path fill="#FFFFCA" d="M1099.713,90.139c0.344,14.689,6.318,21.52,18.955,21.52c6.318,0,12.98-1.879,19.467-5.293
		c0.855-0.514,1.707-0.686,2.221-0.686c0.854,0,1.367,0.516,1.881,1.537l4.268,10.244c0.514,1.025,0.514,1.197,0.514,1.881
		c0,1.879-1.363,2.902-7,5.291c-7.514,3.246-15.199,4.785-23.568,4.785c-10.93,0-19.467-2.734-25.441-8.371
		c-8.197-7.342-12.809-20.49-12.809-36.029c0-27.494,14.857-45.767,37.398-45.767c22.539,0,33.811,15.541,33.811,46.621
		c0,3.416-0.684,4.268-3.754,4.268H1099.713z M1126.698,74.258c-0.342-14.174-3.758-19.467-12.467-19.467
		c-8.707,0-12.637,5.465-14.172,19.467H1126.698z"/>
	<path fill="#FFFFCA" d="M1179.801,38.739c0.51-0.17,1.363-0.34,1.703-0.34c2.053,0,4.271,4.268,6.15,11.783
		c8.539-7.857,15.881-10.931,25.613-10.931c15.199,0,22.031,8.369,22.031,26.981v57.376c0,2.564-0.342,2.904-2.902,2.904h-15.881
		c-2.563,0-2.902-0.342-2.902-2.904V71.014c0-10.074-2.902-14.344-9.736-14.344c-4.949,0-8.877,1.879-14.855,7.002v59.937
		c0,2.564-0.34,2.904-2.904,2.904h-15.881c-2.563,0-2.902-0.342-2.902-2.904V66.233c0-7.344-1.193-13.491-3.588-18.612
		c-0.34-0.687-0.51-1.196-0.51-1.709s0.51-1.194,1.365-1.535L1179.801,38.739z"/>
</g>
</svg>
