<?xml version="1.0" encoding="utf-8"?>
<!-- Generator: Adobe Illustrator 16.0.0, SVG Export Plug-In . SVG Version: 6.00 Build 0)  -->
<!DOCTYPE svg PUBLIC "-//W3C//DTD SVG 1.1//EN" "http://www.w3.org/Graphics/SVG/1.1/DTD/svg11.dtd">
<svg version="1.1" id="Layer_1" xmlns="http://www.w3.org/2000/svg" xmlns:xlink="http://www.w3.org/1999/xlink" x="0px" y="0px"
	 width="167.297px" height="1237.051px" viewBox="534.876 -534.877 167.297 1237.051"
	 enable-background="new 534.876 -534.877 167.297 1237.051" xml:space="preserve">
<g>
	<path fill="#FFFFCA" d="M630.48,668.999l28.006,7.343c2.734,0.684,2.904,0.854,2.904,3.757v16.907c0,2.563-0.514,3.416-1.881,3.416
		c-0.682,0-0.852,0-2.217-0.512l-110.146-33.644c-2.732-0.853-2.9-1.022-2.9-3.756V644.75c0-2.731,0.168-2.903,2.9-3.755
		l110.146-33.643c1.193-0.341,1.705-0.512,2.217-0.512c1.367,0,1.881,0.853,1.881,3.414v18.614c0,2.901-0.17,3.245-2.904,3.926
		l-28.006,7.342V668.999z M614.429,644.58l-29.201,6.318c-7.002,1.535-10.076,2.05-23.053,4.269
		c9.903,1.537,13.832,2.221,23.053,4.441l29.201,6.83V644.58z"/>
	<path fill="#FFFFCA" d="M620.236,575.254c11.953-2.903,18.955-4.611,29.541-6.66c-7.512-1.366-9.563-1.708-14.344-2.562
		c-2.902-0.515-5.636-1.025-7.855-1.536l-7.342-1.708l-41.838-9.563c-2.051-0.341-2.563-0.853-2.563-1.879
		c0-0.169,0-0.683,0.171-1.366l1.706-15.027c0.173-2.049,0.685-2.732,1.709-2.732c0.511,0,0.511,0,1.705,0.342l62.502,17.077
		c3.414,1.023,7.342,2.049,11.27,2.903c24.248,5.976,29.713,8.025,35.521,12.978c6.145,5.123,8.877,11.612,8.877,20.663
		c0,9.563-4.609,23.396-8.025,23.396c-0.514,0-0.514,0-1.879-0.683l-10.93-5.293c-0.682-0.342-1.195-1.023-1.195-1.537
		c0-0.34,0.17-0.854,0.514-1.366c2.562-5.293,3.757-9.222,3.757-13.148c0-7.173-3.074-10.416-12.978-13.32l-7.172-2.051v7.173
		c0,2.22-0.172,2.39-2.221,3.245l-77.871,26.811c-1.195,0.513-1.365,0.513-1.878,0.513c-1.022,0-1.536-0.684-1.709-2.731
		l-1.879-17.419v-1.196c0-1.023,0.515-1.536,2.392-2.048L620.236,575.254z"/>
	<path fill="#FFFFCA" d="M625.015,506.781c14.689-0.341,21.521-6.318,21.521-18.954c0-6.318-1.88-12.979-5.293-19.468
		c-0.515-0.854-0.687-1.707-0.687-2.22c0-0.854,0.516-1.366,1.537-1.88l10.244-4.27c1.025-0.511,1.197-0.511,1.881-0.511
		c1.879,0,2.902,1.365,5.291,7.001c3.246,7.512,4.785,15.196,4.785,23.563c0,10.929-2.734,19.468-8.371,25.445
		c-7.342,8.196-20.49,12.807-36.029,12.807c-27.494,0-45.767-14.856-45.767-37.396c0-22.542,15.541-33.813,46.621-33.813
		c3.416,0,4.269,0.685,4.269,3.758v45.938H625.015z M609.134,479.801c-14.174,0.341-19.467,3.756-19.467,12.465
		c0,8.708,5.465,12.638,19.467,14.175V479.801z"/>
	<path fill="#FFFFCA" d="M573.615,426.698c-0.17-0.515-0.34-1.367-0.34-1.708c0-2.049,4.269-4.27,11.783-6.147
		c-7.856-8.54-10.931-15.882-10.931-25.616c0-15.197,8.369-22.028,26.98-22.028h57.376c2.564,0,2.904,0.34,2.904,2.902v15.882
		c0,2.562-0.342,2.902-2.904,2.902H605.89c-10.074,0-14.344,2.903-14.344,9.735c0,4.952,1.879,8.878,7.002,14.855h59.938
		c2.563,0,2.904,0.343,2.904,2.903v15.881c0,2.563-0.343,2.903-2.904,2.903h-57.377c-7.344,0-13.49,1.196-18.611,3.585
		c-0.688,0.341-1.196,0.514-1.709,0.514c-0.514,0-1.194-0.514-1.535-1.365L573.615,426.698z"/>
	<path fill="#FFFFCA" d="M663.267,296.41c0.34,0.684,0.517,1.195,0.517,1.707c0,1.708-3.587,3.586-8.71,4.611
		c6.146,7.512,9.224,15.71,9.224,23.905c0,17.761-15.883,27.836-43.547,27.836c-16.734,0-28.008-3.073-36.375-10.075
		c-6.659-5.636-10.246-12.978-10.246-21.688c0-5.976,1.367-10.758,4.781-16.905h-34.665c-2.221,0-2.563-0.169-3.073-2.562
		l-3.246-15.881l-0.17-1.537c0-1.195,0.854-1.707,2.903-1.707h99.729c7.172,0,8.539-0.34,14.686-3.072
		c0.513-0.171,0.853-0.342,1.023-0.342c0.682,0,1.197,0.513,1.537,1.537L663.267,296.41z M594.449,305.802
		c-2.049,4.1-3.073,8.027-3.073,12.295c0,10.76,7.516,14.687,28.177,14.687c19.809,0,28.006-3.927,28.006-13.32
		c0-5.293-2.051-9.902-5.977-13.661H594.449z"/>
	<path fill="#FFFFCA" d="M625.015,244.331c14.689-0.342,21.521-6.319,21.521-18.956c0-6.318-1.88-12.979-5.293-19.467
		c-0.515-0.854-0.687-1.707-0.687-2.222c0-0.852,0.516-1.365,1.537-1.878l10.244-4.269c1.025-0.514,1.197-0.514,1.881-0.514
		c1.879,0,2.902,1.365,5.291,7c3.246,7.516,4.785,15.199,4.785,23.567c0,10.929-2.734,19.467-8.371,25.444
		c-7.342,8.194-20.49,12.808-36.029,12.808c-27.494,0-45.767-14.856-45.767-37.397c0-22.539,15.541-33.812,46.621-33.812
		c3.416,0,4.269,0.683,4.269,3.756v45.938H625.015z M609.134,217.349c-14.174,0.341-19.467,3.757-19.467,12.465
		c0,8.71,5.465,12.639,19.467,14.176V217.349z"/>
	<path fill="#FFFFCA" d="M591.886,49.668c-1.365-0.514-1.879-1.365-1.879-2.734v-9.902c0-1.195,0.684-2.051,1.709-2.051l1.707,0.172
		l36.542,7.686c1.022,0.34,3.246,0.514,4.44,0.514c3.584,0,5.121-2.051,5.121-6.83c0-13.32-17.078-24.422-37.91-24.422
		C576.857,12.1,562,29.178,562,57.184c0,18.783,5.805,33.472,17.588,45.083c12.465,12.125,31.594,19.639,50.206,19.639
		c14.856,0,27.324-4.954,36.033-14.347c8.194-8.878,11.952-20.663,11.952-37.908c0-17.25-3.926-34.838-10.93-49.012
		c-0.854-1.537-1.021-2.389-1.021-3.074c0-0.682,0.512-1.365,1.021-1.537l7.687-2.902c1.534-0.682,1.534-0.682,2.051-0.682
		c0.854,0,1.705,0.854,2.731,2.563c7.343,11.271,12.465,34.15,12.465,55.67c0,22.37-5.122,38.082-16.225,49.522
		c-11.098,11.44-28.006,18.102-46.277,18.102c-22.199,0-44.57-9.563-59.425-25.104c-14.176-14.856-21.859-34.833-21.859-56.864
		c0-19.299,6.148-36.377,16.396-46.449c8.877-8.539,22.199-13.662,36.029-13.662c29.714,0,52.595,20.492,52.595,46.959
		c0,9.564-3.586,14.52-11.781,16.053c8.367,6.318,11.781,12.467,11.781,20.492c0,9.394-7.512,15.03-20.318,15.03
		c-14.175,0-28.179-5.294-37.398-14.001c-4.609-4.271-7.343-10.416-7.343-16.564c0-5.465,1.879-10.074,5.808-13.66L591.886,49.668z
		 M604.355,54.275c-3.073,3.586-4.1,5.639-4.1,8.711c0,3.586,2.049,6.316,6.318,8.709c5.979,3.242,18.444,6.146,26.301,6.146
		c4.269,0,6.657-1.709,6.657-4.783c0-3.586-2.563-7.854-5.977-10.586c-2.391-1.881-5.467-3.076-10.074-4.1L604.355,54.275z"/>
	<path fill="#FFFFCA" d="M655.072-143.801c0.852-0.516,1.879-0.855,2.563-0.855c0.852,0,1.535,0.686,2.047,2.732l4.271,15.197
		c0.516,1.537,0.516,1.537,0.516,2.047c0,0.855-0.516,1.367-2.393,2.395l-48.669,24.076v9.051h44.397
		c3.074,0,3.588,0.516,3.588,3.588v15.709c0,3.244-0.342,3.588-4.098,3.588H547.831c-3.247,0-3.586-0.344-3.586-3.588v-27.834
		c0-12.809,1.196-19.299,4.438-25.271c5.465-9.734,15.199-14.518,29.201-14.518c15.711,0,25.445,5.637,32.617,19.125
		L655.072-143.801z M595.302-93.938c0-15.029-4.609-20.32-17.588-20.32c-12.125,0-16.052,4.605-16.052,18.441v6.658h33.642v-4.779
		H595.302L595.302-93.938z"/>
	<path fill="#FFFFCA" d="M603.669-196.053c-9.732,0-12.807,2.73-12.807,11.27c0,5.123,1.537,11.611,4.439,19.127
		c0.342,0.684,0.514,1.365,0.514,1.879c0,0.855-0.514,1.367-1.709,1.707l-10.244,3.586c-0.514,0.17-1.365,0.344-1.879,0.344
		c-3.586,0-7.855-15.545-7.855-29.205c0-13.488,4.439-22.709,13.148-26.641c3.586-1.707,7.684-2.387,14.174-2.387h34.835
		c7.514,0,12.465-1.025,18.442-3.93c0.683-0.34,1.367-0.514,1.879-0.514c0.687,0,1.367,0.514,1.707,1.367l5.293,13.32
		c0.342,0.514,0.515,1.535,0.515,2.051c0,1.537-3.246,3.242-10.076,5.123c7.002,6.83,9.733,12.979,9.733,21.855
		c0,15.711-10.073,25.613-25.784,25.613c-15.199,0-24.249-8.193-27.493-25.439c-1.025-4.441-1.369-9.736-1.537-19.127H603.669
		L603.669-196.053L603.669-196.053z M623.138-196.053c0,17.074,3.756,23.904,13.662,23.904c6.66,0,11.781-4.779,11.781-10.93
		c0-4.609-2.219-8.877-6.66-12.979h-18.783V-196.053z"/>
	<path fill="#FFFFCA" d="M584.031-262.99c-6.658-7-9.904-14.514-9.904-23.563c0-8.195,3.414-15.199,9.221-18.783
		c4.271-2.564,8.881-3.416,17.59-3.416h57.548c2.563,0,2.904,0.342,2.904,2.9v15.883c0,2.563-0.344,2.9-2.904,2.9h-52.598
		c-10.416,0-14.344,2.564-14.344,9.393c0,5.125,1.879,9.053,7.002,14.688h59.94c2.561,0,2.904,0.338,2.904,2.898v15.885
		c0,2.561-0.345,2.902-2.904,2.902H544.244c-2.393,0-2.564-0.172-3.075-2.563l-3.245-15.881c-0.171-0.516-0.171-1.195-0.171-1.537
		c0-1.197,0.853-1.709,2.903-1.709h43.375V-262.99z"/>
	<path fill="#FFFFCA" d="M592.914-322.918c0,2.561-0.344,2.9-2.904,2.9h-10.077c-2.561,0-2.901-0.342-2.901-2.9v-31.768
		c0-2.563,0.342-2.898,2.901-2.898h78.553c2.563,0,2.904,0.34,2.904,2.898v15.885c0,2.563-0.343,2.902-2.904,2.902h-65.571
		L592.914-322.918L592.914-322.918z M551.929-359.979c7.684,0,13.832,6.148,13.832,13.832c0,7.689-6.15,13.832-14.004,13.832
		c-7.511,0-13.66-6.316-13.66-14.004C538.097-353.828,544.413-359.979,551.929-359.979z"/>
	<path fill="#FFFFCA" d="M625.015-397.539c14.689-0.344,21.521-6.318,21.521-18.955c0-6.318-1.88-12.98-5.293-19.467
		c-0.515-0.855-0.687-1.707-0.687-2.221c0-0.855,0.516-1.367,1.537-1.883l10.244-4.268c1.025-0.514,1.197-0.514,1.881-0.514
		c1.879,0,2.902,1.363,5.291,7c3.246,7.514,4.785,15.199,4.785,23.568c0,10.93-2.734,19.467-8.371,25.441
		c-7.342,8.197-20.49,12.809-36.029,12.809c-27.494,0-45.767-14.857-45.767-37.398c0-22.539,15.541-33.811,46.622-33.811
		c3.416,0,4.269,0.684,4.269,3.754v45.943H625.015z M609.134-424.525c-14.174,0.344-19.467,3.76-19.467,12.469
		c0,8.707,5.465,12.637,19.467,14.172V-424.525z"/>
	<path fill="#FFFFCA" d="M573.615-477.627c-0.17-0.51-0.34-1.363-0.34-1.703c0-2.053,4.268-4.271,11.783-6.15
		c-7.857-8.539-10.931-15.881-10.931-25.613c0-15.199,8.369-22.031,26.981-22.031h57.376c2.564,0,2.904,0.342,2.904,2.902v15.881
		c0,2.563-0.342,2.902-2.904,2.902H605.89c-10.074,0-14.344,2.902-14.344,9.736c0,4.949,1.879,8.877,7.002,14.854h59.938
		c2.563,0,2.904,0.34,2.904,2.904v15.881c0,2.564-0.343,2.902-2.904,2.902h-57.377c-7.344,0-13.491,1.193-18.612,3.588
		c-0.687,0.34-1.196,0.51-1.709,0.51c-0.513,0-1.194-0.51-1.535-1.365L573.615-477.627z"/>
</g>
</svg>
